<?xml version="1.0" encoding="utf-8"?>
<!-- Generator: Adobe Illustrator 15.0.0, SVG Export Plug-In . SVG Version: 6.00 Build 0)  -->
<!DOCTYPE svg PUBLIC "-//W3C//DTD SVG 1.1//EN" "http://www.w3.org/Graphics/SVG/1.1/DTD/svg11.dtd">
<svg version="1.1" id="Layer_1" xmlns="http://www.w3.org/2000/svg" xmlns:xlink="http://www.w3.org/1999/xlink" x="0px" y="0px"
	 width="20px" height="20px" viewBox="0 0 20 20" enable-background="new 0 0 20 20" xml:space="preserve">
<path fill="#FFFFFF" d="M3.974,2.646l0.194-0.001C4.294,4.55,4.602,6.704,5.504,8.68C2.338,8.497,1.333,5.368,1.336,2.652
	l2.638-0.008V2.646z M18.672,2.604c0.008,2.626-0.902,5.646-3.827,6.021c0.777-1.812,1.108-3.871,1.286-6.014L18.672,2.604z
	 M16.291,0L4.064,0.035C4.065,0.47,4.095,0.942,4.105,1.44L3.678,1.441L0,1.453c-0.017,3.878,1.463,8.361,6.135,8.418
	c0.738,1.196,1.749,2.285,3.14,3.155l0.005,2.671l-3.666,0.01l0.002,0.671l-1.525,0.005L3.038,20l14.286-0.041l-0.967-3.612
	l-1.524,0.004l-0.002-0.671l-3.668,0.01l-0.006-2.686c1.368-0.868,2.358-1.946,3.08-3.171c4.415-0.279,5.791-4.652,5.764-8.44
	l-3.678,0.011h-0.106c0.027-0.465,0.052-0.932,0.073-1.4L16.291,0z"/>
<rect fill="none" width="20" height="20"/>
</svg>
